<svg id="图层_1" data-name="图层 1" xmlns="http://www.w3.org/2000/svg" xmlns:xlink="http://www.w3.org/1999/xlink" viewBox="0 0 166.27 166.27"><defs><style>.cls-1{fill:#341a12;}.cls-2{fill:#fff;}.cls-3{fill:#4a2a12;}.cls-4{fill:url(#Neues_Verlaufsfeld_5);}.cls-5{fill:url(#Neues_Verlaufsfeld_5-2);}.cls-6{fill:url(#Neues_Verlaufsfeld_5-3);}.cls-7{fill:#7f4f21;}.cls-8{fill:url(#Neues_Verlaufsfeld_5-4);}.cls-9{fill:url(#Neues_Verlaufsfeld_5-5);}.cls-10{fill:url(#Neues_Verlaufsfeld_5-6);}</style><linearGradient id="Neues_Verlaufsfeld_5" x1="274.67" y1="387.34" x2="298.12" y2="387.34" gradientUnits="userSpaceOnUse"><stop offset="0.01" stop-color="#fbcf00"/><stop offset="0.18" stop-color="#fffcd1"/><stop offset="0.27" stop-color="#fef6c0"/><stop offset="0.45" stop-color="#fde693"/><stop offset="0.69" stop-color="#fbcc4b"/><stop offset="0.8" stop-color="#fac029"/><stop offset="1" stop-color="#ab8300"/></linearGradient><linearGradient id="Neues_Verlaufsfeld_5-2" x1="302.62" y1="399.46" x2="338.29" y2="399.46" xlink:href="#Neues_Verlaufsfeld_5"/><linearGradient id="Neues_Verlaufsfeld_5-3" x1="313.37" y1="389.01" x2="337.5" y2="389.01" xlink:href="#Neues_Verlaufsfeld_5"/><linearGradient id="Neues_Verlaufsfeld_5-4" x1="257.72" y1="410.63" x2="382.34" y2="410.63" xlink:href="#Neues_Verlaufsfeld_5"/><linearGradient id="Neues_Verlaufsfeld_5-5" x1="239.16" y1="367.43" x2="363.78" y2="367.43" xlink:href="#Neues_Verlaufsfeld_5"/><linearGradient id="Neues_Verlaufsfeld_5-6" x1="322.95" y1="408.89" x2="341.79" y2="408.89" xlink:href="#Neues_Verlaufsfeld_5"/></defs><title>it logo1</title><rect class="cls-1" width="166.27" height="166.27"/><path class="cls-2" d="M284.3,357.37A10.27,10.27,0,1,1,274,367.64,10.26,10.26,0,0,1,284.3,357.37Zm1.86,25.81a6.82,6.82,0,0,0-6.06,6.64V418h-2.54V389.82a9.62,9.62,0,0,1,8.21-9.28,13.74,13.74,0,0,0,11.63-10.85v6.64A16,16,0,0,1,286.16,383.18ZM297.49,418H283.42V389.82a3.6,3.6,0,0,1,3.22-3.61,17.83,17.83,0,0,0,10.85-5.67Z" transform="translate(-227.61 -305.74)"/><path class="cls-2" d="M309.61,407c0,9.38,6.35,19.94,16.91,19.94a29.43,29.43,0,0,0,11.14-2.83s-6.45,4.59-11.14,4.59c-11.53,0-19.64-6.94-19.64-22.19V375H302v-2.74a38.69,38.69,0,0,0,7.62-1.37Z" transform="translate(-227.61 -305.74)"/><path class="cls-2" d="M334.92,422.37a19.81,19.81,0,0,1-8.4,1.46c-8.5,0-13.78-8.79-13.78-16.81V370c6.16-2.44,11.53-7.43,16.12-15.15v16.42h8V375h-8v20.91a13.61,13.61,0,0,0,3.43,26.78A11.14,11.14,0,0,0,334.92,422.37Z" transform="translate(-227.61 -305.74)"/><path class="cls-3" d="M286,357.58a10.27,10.27,0,1,1-10.27,10.26A10.26,10.26,0,0,1,286,357.58Zm1.85,25.8A6.85,6.85,0,0,0,281.8,390v28.15h-2.54V390a9.65,9.65,0,0,1,8.21-9.29A13.7,13.7,0,0,0,299.1,369.9v6.64A15.88,15.88,0,0,1,287.86,383.38Zm11.34,34.8H285.13V390a3.61,3.61,0,0,1,3.22-3.62,17.77,17.77,0,0,0,10.85-5.67Z" transform="translate(-227.61 -305.74)"/><path class="cls-3" d="M311.32,407.23c0,9.38,6.35,19.94,16.91,19.94a29.3,29.3,0,0,0,11.14-2.84s-6.45,4.6-11.14,4.6c-11.54,0-19.65-6.94-19.65-22.19V375.17H303.7v-2.73a39.57,39.57,0,0,0,7.62-1.37Z" transform="translate(-227.61 -305.74)"/><path class="cls-3" d="M336.63,422.57a19.66,19.66,0,0,1-8.4,1.47c-8.51,0-13.78-8.8-13.78-16.81v-37c6.15-2.44,11.53-7.43,16.12-15.15v16.42h8v3.71h-8v20.92A13.61,13.61,0,0,0,334,422.87,10.65,10.65,0,0,0,336.63,422.57Z" transform="translate(-227.61 -305.74)"/><path class="cls-4" d="M284.93,357.05a10.26,10.26,0,1,1-10.26,10.26A10.26,10.26,0,0,1,284.93,357.05Zm1.85,25.8a6.83,6.83,0,0,0-6,6.64v28.15h-2.55V389.49a9.63,9.63,0,0,1,8.21-9.28A13.72,13.72,0,0,0,298,369.36V376A15.94,15.94,0,0,1,286.78,382.85Zm11.34,34.79H284.05V389.49a3.6,3.6,0,0,1,3.22-3.61,17.83,17.83,0,0,0,10.85-5.67Z" transform="translate(-227.61 -305.74)"/><path class="cls-5" d="M310.24,406.69c0,9.38,6.35,19.94,16.91,19.94a29.47,29.47,0,0,0,11.14-2.83s-6.45,4.59-11.14,4.59c-11.54,0-19.65-6.94-19.65-22.19V374.64h-4.88V371.9a38,38,0,0,0,7.62-1.37Z" transform="translate(-227.61 -305.74)"/><path class="cls-6" d="M335.55,422a19.81,19.81,0,0,1-8.4,1.46c-8.51,0-13.78-8.79-13.78-16.81v-37c6.15-2.45,11.53-7.43,16.12-15.15v16.42h8v3.71h-8v20.91a13.61,13.61,0,0,0,3.42,26.78A11.17,11.17,0,0,0,335.55,422Z" transform="translate(-227.61 -305.74)"/><path class="cls-2" d="M364.32,403.51h-15.9L373.86,360s13.26,17.76,5,48.51S339.67,462.89,306.8,461c0,0-28.63-.53-49.83-22.53l7.95-13s30.75,35,71.3,13.52C336.22,439,356.37,429,364.32,403.51Z" transform="translate(-227.61 -305.74)"/><path class="cls-2" d="M255.68,374.46h15.9l-25.45,43.47s-13.25-17.76-5-48.51,39.23-54.34,72.1-52.48c0,0,28.62.53,49.83,22.53l-7.95,13s-30.75-35-71.31-13.52C283.77,338.94,263.63,349,255.68,374.46Z" transform="translate(-227.61 -305.74)"/><path class="cls-7" d="M365.81,403.25H349.9l25.45-43.47s13.25,17.76,5,48.51-39.23,54.34-72.1,52.48c0,0-28.63-.53-49.84-22.53l8-13s30.74,35,71.3,13.52C337.71,438.77,357.86,428.7,365.81,403.25Z" transform="translate(-227.61 -305.74)"/><path class="cls-7" d="M257.17,374.2h15.9l-25.45,43.47s-13.25-17.76-5-48.51,39.23-54.34,72.1-52.48c0,0,28.62.53,49.83,22.53l-7.95,13s-30.75-35-71.31-13.51C285.26,338.68,265.12,348.75,257.17,374.2Z" transform="translate(-227.61 -305.74)"/><path class="cls-8" d="M365.07,403.56h-15.9l25.44-43.47s13.26,17.76,5,48.5-39.23,54.34-72.1,52.49c0,0-28.63-.53-49.83-22.53l7.95-13s30.75,35,71.3,13.52C337,439.08,357.12,429,365.07,403.56Z" transform="translate(-227.61 -305.74)"/><path class="cls-9" d="M256.43,374.5h15.9L246.89,418s-13.26-17.76-5-48.5S281.08,315.13,314,317c0,0,28.62.53,49.83,22.53l-7.95,13s-30.75-35-71.31-13.52C284.52,339,264.38,349.05,256.43,374.5Z" transform="translate(-227.61 -305.74)"/><path class="cls-2" d="M331.07,399.38a9.55,9.55,0,0,1,10.5,9.35,9.43,9.43,0,1,1-16.34-6.38A9.13,9.13,0,0,1,331.07,399.38Zm-7.37,9a.45.45,0,0,0,.11,0h3c.11,0,.13-.06.14-.16,0-.46.08-.93.14-1.39a10.61,10.61,0,0,1,.48-2.15c0-.1,0-.17-.11-.17h-.12l-1.71-.5c-.14,0-.3-.15-.4-.11s-.18.22-.26.35a7.84,7.84,0,0,0-.91,2A7,7,0,0,0,323.7,408.37Zm13-3.75c.07.27.14.52.2.77a11.55,11.55,0,0,1,.41,2.8c0,.16.06.21.21.21h2.9c.07,0,.19-.07.19-.11a3.66,3.66,0,0,0-.05-.57c-.09-.43-.18-.87-.29-1.3a8.13,8.13,0,0,0-1.07-2.34.21.21,0,0,0-.29-.09l-1.38.41Zm-5,3.76v-3c0-.28,0-.28-.27-.3-.88-.08-1.75-.15-2.63-.25-.2,0-.25,0-.29.19-.16.71-.34,1.42-.48,2.13-.08.41-.08.83-.12,1.26Zm-8,1a8.56,8.56,0,0,0,1.54,4.36l.39-.15,1.78-.5c.13,0,.17-.08.14-.2-.08-.3-.19-.6-.24-.9-.13-.8-.24-1.6-.34-2.41,0-.15,0-.22-.21-.22H324ZM336.75,413a.52.52,0,0,0,.15.07l1.89.53c.31.08.31.08.48-.21h0a7.44,7.44,0,0,0,.93-2c.09-.32.19-.64.25-1s.09-.68.13-1.05h-3.15a.17.17,0,0,0-.13.14c-.08.65-.13,1.31-.23,2C337,412,336.87,412.47,336.75,413Zm-4.1-4.64.1,0h3.52s.09-.09.09-.14a3.71,3.71,0,0,0,0-.47,6.65,6.65,0,0,0-.07-.78c-.14-.66-.31-1.31-.45-2-.05-.25-.2-.24-.38-.22l-2.08.22a5.54,5.54,0,0,0-.57.07s-.13.09-.13.14C332.64,406.28,332.65,407.31,332.65,408.36Zm-4.73,1a12,12,0,0,0,.6,3.47l.51-.07,1.88-.2c.2,0,.41,0,.61,0s.18-.07.18-.2c0-.92,0-1.84,0-2.76,0-.16,0-.21-.2-.21h-3.16Zm4.75,0a.57.57,0,0,0,0,.12c0,.94,0,1.88,0,2.83,0,.16.08.19.22.2l2.6.27c.3,0,.32,0,.4-.26.15-.58.3-1.17.4-1.77.07-.45.07-.91.1-1.39Zm-.92,8a2.24,2.24,0,0,1-.05-.31v-3.42c0-.14,0-.21-.2-.19s-.54,0-.8.06-.29,0-.42,0l-1,.14-.43.08c.09.18.16.3.21.43a13.71,13.71,0,0,0,1.74,2.83.49.49,0,0,0,.42.23A3.2,3.2,0,0,1,331.75,417.41Zm.89-3.94v1.06c0,.88,0,1.76,0,2.63a.29.29,0,0,0,.07.18,1.82,1.82,0,0,0,.66-.16,13.19,13.19,0,0,0,2-3.25c.05-.13,0-.2-.12-.21l-1-.1Zm-3.77-9.63c.39.06.71.12,1,.15l1.58.13c.16,0,.23,0,.22-.21s0-.5,0-.75v-2.63c0-.08,0-.21-.08-.24a.62.62,0,0,0-.62.17c-.42.58-.88,1.14-1.26,1.75S329.18,403.25,328.87,403.84Zm3.79-1.61h0c0,.47,0,.94,0,1.41s0,.52.54.46,1.29-.13,1.94-.18c.23,0,.27-.06.16-.27-.29-.55-.55-1.12-.89-1.65a17.9,17.9,0,0,0-1.17-1.58c-.09-.1-.32-.1-.49-.11a.7.7,0,0,0-.08.31C332.65,401.16,332.66,401.69,332.66,402.23Zm2.09-1.55a.91.91,0,0,0,0,.12,13.51,13.51,0,0,1,1.52,2.76c.05.12.1.12.21.09l1.46-.38a3.93,3.93,0,0,0,.46-.18A8.48,8.48,0,0,0,334.75,400.68Zm-8.84,2.43,1.76.49a.27.27,0,0,0,.37-.17c.3-.62.61-1.23.94-1.83.16-.3.35-.57.54-.86A7.44,7.44,0,0,0,325.91,403.11Zm8.94,13.76a.71.71,0,0,0,.22-.05c.53-.26,1.05-.5,1.56-.78a7.09,7.09,0,0,0,1.69-1.4c.12-.12.09-.17-.06-.21l-.41-.1-1.44-.4A14.81,14.81,0,0,1,334.85,416.87Zm-5.42,0c-.21-.35-.41-.65-.58-1-.31-.57-.61-1.15-.88-1.74-.09-.2-.16-.22-.34-.16s-.3.07-.44.11l-1.34.38A8.46,8.46,0,0,0,329.43,416.9Z" transform="translate(-227.61 -305.74)"/><path class="cls-3" d="M331.72,399.38a9.54,9.54,0,0,1,10.5,9.35,9.43,9.43,0,1,1-16.34-6.38A9.15,9.15,0,0,1,331.72,399.38Zm-7.36,9,.1,0h3c.11,0,.14-.06.15-.16,0-.46.08-.93.14-1.39a10.61,10.61,0,0,1,.48-2.15c0-.1,0-.17-.11-.17H328l-1.7-.5c-.14,0-.3-.15-.41-.11s-.17.22-.25.35a7.87,7.87,0,0,0-.92,2A7.27,7.27,0,0,0,324.36,408.37Zm13-3.75c.08.27.14.52.21.77a11.55,11.55,0,0,1,.41,2.8c0,.16.06.21.21.21h2.9c.07,0,.19-.07.19-.11a2.76,2.76,0,0,0-.06-.57c-.08-.43-.17-.87-.28-1.3a7.9,7.9,0,0,0-1.08-2.34c-.07-.12-.15-.13-.28-.09l-1.38.41Zm-5,3.76v-3c0-.28,0-.28-.28-.3-.87-.08-1.75-.15-2.62-.25-.2,0-.26,0-.3.19-.15.71-.34,1.42-.47,2.13-.08.41-.08.83-.12,1.26Zm-8,1a8.66,8.66,0,0,0,1.55,4.36l.39-.15,1.78-.5c.13,0,.16-.08.13-.2-.08-.3-.18-.6-.23-.9-.13-.8-.24-1.6-.34-2.41,0-.15,0-.22-.21-.22h-2.73ZM337.41,413a.42.42,0,0,0,.15.07l1.89.53c.3.08.3.08.48-.21h0a7.41,7.41,0,0,0,.92-2c.09-.32.2-.64.26-1s.08-.68.13-1.05h-3.16s-.12.08-.13.14c-.07.65-.12,1.31-.22,2C337.66,412,337.53,412.47,337.41,413Zm-4.11-4.64.11,0h3.52s.09-.09.09-.14,0-.31,0-.47a6.65,6.65,0,0,0-.08-.78c-.13-.66-.3-1.31-.44-2-.06-.25-.2-.24-.39-.22L334,405a5,5,0,0,0-.56.07c-.05,0-.13.09-.13.14C333.3,406.28,333.3,407.31,333.3,408.36Zm-4.72,1a12,12,0,0,0,.6,3.47l.5-.07,1.89-.2c.2,0,.41,0,.61,0s.18-.07.18-.2c0-.92,0-1.84,0-2.76,0-.16,0-.21-.19-.21H329Zm4.74,0v.12c0,.94,0,1.88,0,2.83,0,.16.07.19.22.2l2.6.27c.3,0,.32,0,.4-.26.15-.58.3-1.17.4-1.77.07-.45.07-.91.1-1.39Zm-.91,8a1.34,1.34,0,0,1-.05-.31v-3.42c0-.14-.05-.21-.2-.19s-.54,0-.81.06-.28,0-.42,0l-1,.14-.43.08.21.43a14.11,14.11,0,0,0,1.73,2.83.5.5,0,0,0,.42.23A3.1,3.1,0,0,1,332.41,417.41Zm.89-3.94v1.06c0,.88,0,1.76,0,2.63a.24.24,0,0,0,.07.18,1.82,1.82,0,0,0,.66-.16,13.19,13.19,0,0,0,2-3.25c0-.13,0-.2-.13-.21l-1-.1Zm-3.77-9.63c.39.06.71.12,1,.15l1.57.13c.17,0,.24,0,.23-.21s0-.5,0-.75c0-.88,0-1.75,0-2.63,0-.08,0-.21-.07-.24a.62.62,0,0,0-.62.17c-.43.58-.88,1.14-1.27,1.75S329.84,403.25,329.53,403.84Zm3.78-1.61h0v1.41c0,.53,0,.52.55.46s1.29-.13,1.93-.18c.24,0,.27-.06.16-.27-.28-.55-.55-1.12-.88-1.65a17.9,17.9,0,0,0-1.17-1.58c-.09-.1-.32-.1-.49-.11a.7.7,0,0,0-.08.31C333.31,401.16,333.31,401.69,333.31,402.23Zm2.09-1.55c0,.08,0,.1,0,.12a14.54,14.54,0,0,1,1.52,2.76c.05.12.1.12.2.09l1.47-.38a4.77,4.77,0,0,0,.46-.18A8.51,8.51,0,0,0,335.4,400.68Zm-8.84,2.43,1.77.49a.27.27,0,0,0,.37-.17c.3-.62.61-1.23.94-1.83.15-.3.35-.57.53-.86A7.48,7.48,0,0,0,326.56,403.11Zm8.94,13.76a.8.8,0,0,0,.23-.05c.52-.26,1-.5,1.56-.78a7.29,7.29,0,0,0,1.69-1.4c.11-.12.09-.17-.06-.21l-.41-.1-1.44-.4A14.36,14.36,0,0,1,335.5,416.87Zm-5.42,0c-.2-.35-.4-.65-.57-1-.31-.57-.61-1.15-.88-1.74-.09-.2-.16-.22-.34-.16s-.3.07-.45.11l-1.33.38A8.43,8.43,0,0,0,330.08,416.9Z" transform="translate(-227.61 -305.74)"/><path class="cls-10" d="M331.29,399.45a9.54,9.54,0,0,1,10.5,9.35,9.43,9.43,0,1,1-16.34-6.38A9.23,9.23,0,0,1,331.29,399.45Zm-7.37,9,.11,0h3c.11,0,.13-.06.14-.16,0-.47.08-.93.14-1.4a10.38,10.38,0,0,1,.49-2.14c0-.1,0-.17-.12-.17l-.12,0-1.71-.49c-.14,0-.3-.15-.4-.11s-.18.22-.26.34a7.84,7.84,0,0,0-.91,2A7,7,0,0,0,323.92,408.45Zm13-3.76c.07.28.14.53.2.78a10.94,10.94,0,0,1,.41,2.79c0,.16.06.22.21.21h2.9c.07,0,.19-.07.19-.11a2.69,2.69,0,0,0-.05-.57c-.09-.44-.18-.87-.29-1.3a7.89,7.89,0,0,0-1.07-2.34.21.21,0,0,0-.29-.09l-1.38.4C337.46,404.55,337.18,404.62,336.91,404.69Zm-5,3.77c0-1,0-2,0-3,0-.28,0-.27-.28-.29-.88-.08-1.75-.15-2.62-.26-.21,0-.26,0-.3.2-.16.71-.34,1.41-.48,2.13a12.25,12.25,0,0,0-.12,1.26Zm-8,1a8.68,8.68,0,0,0,1.54,4.36c.16-.06.27-.12.39-.15l1.78-.5c.13,0,.17-.09.14-.21a9.17,9.17,0,0,1-.24-.9q-.19-1.2-.33-2.4c0-.16,0-.23-.22-.22h-2.73ZM337,413.08l.15.07,1.9.52c.3.08.3.09.47-.2l0,0a7.27,7.27,0,0,0,.92-2,9.63,9.63,0,0,0,.25-1c.07-.33.09-.68.13-1.05h-3.15c-.05,0-.12.09-.13.14-.08.66-.13,1.32-.23,2S337.09,412.55,337,413.08Zm-4.1-4.64.1,0h3.52s.1-.1.1-.15,0-.31,0-.46a6.82,6.82,0,0,0-.07-.79c-.14-.65-.31-1.3-.45-2,0-.24-.19-.23-.38-.21l-2.08.22a5.51,5.51,0,0,0-.57.06.2.2,0,0,0-.13.14C332.86,406.36,332.87,407.39,332.87,408.44Zm-4.73,1a11.85,11.85,0,0,0,.6,3.46l.51-.06,1.88-.21.61,0c.14,0,.19-.06.18-.2,0-.92,0-1.84,0-2.75,0-.16,0-.21-.2-.21h-3.15Zm4.75,0a.66.66,0,0,0,0,.13c0,.94,0,1.88,0,2.82,0,.17.08.2.22.21l2.61.26c.3,0,.32,0,.39-.25.15-.59.3-1.18.4-1.77s.07-.92.1-1.4Zm-.92,8c0-.08,0-.19-.05-.31,0-1,0-2,0-3.05,0-.12,0-.25,0-.37s0-.2-.2-.18l-.8.06c-.14,0-.28,0-.42,0l-1,.14-.43.08c.08.17.15.3.2.42a13.78,13.78,0,0,0,1.74,2.84.53.53,0,0,0,.42.23A4.35,4.35,0,0,1,332,417.48Zm.9-3.94c0,.39,0,.73,0,1.07,0,.88,0,1.75,0,2.63a.31.31,0,0,0,.07.18,1.62,1.62,0,0,0,.66-.17,13,13,0,0,0,2-3.24c.06-.13,0-.2-.12-.21l-1-.1Zm-3.78-9.62c.39.05.71.11,1,.14.52.06,1.05.09,1.58.14.16,0,.23,0,.22-.22s0-.49,0-.74c0-.88,0-1.76,0-2.63,0-.09,0-.21-.08-.24a.6.6,0,0,0-.61.17c-.43.57-.88,1.14-1.27,1.74S329.4,403.33,329.09,403.92Zm3.79-1.62h0c0,.47,0,.94,0,1.41s0,.53.54.46l1.94-.18c.23,0,.27-.05.16-.27-.29-.55-.55-1.12-.88-1.64a18,18,0,0,0-1.18-1.58c-.09-.11-.32-.1-.49-.12a.75.75,0,0,0-.08.32C332.87,401.23,332.88,401.77,332.88,402.3Zm2.09-1.54c0,.08,0,.1,0,.11a13.59,13.59,0,0,1,1.52,2.77c.05.12.1.12.21.09l1.46-.39a3.78,3.78,0,0,0,.46-.17A8.39,8.39,0,0,0,335,400.76Zm-8.84,2.43c.59.16,1.18.31,1.76.48a.27.27,0,0,0,.38-.17c.29-.61.61-1.22.93-1.83.16-.29.35-.57.54-.86A7.39,7.39,0,0,0,326.13,403.19Zm8.94,13.75.23,0c.52-.26,1-.5,1.55-.79a7,7,0,0,0,1.69-1.39c.12-.12.09-.18-.06-.21l-.4-.1-1.45-.41A14.28,14.28,0,0,1,335.07,416.94Zm-5.42,0c-.21-.34-.41-.64-.58-1-.3-.58-.61-1.15-.88-1.74-.09-.21-.16-.23-.34-.17a3.17,3.17,0,0,1-.44.12l-1.34.38A8.44,8.44,0,0,0,329.65,417Z" transform="translate(-227.61 -305.74)"/></svg>